<svg width="100" height="100" viewBox="0 0 100 100" fill="none" xmlns="http://www.w3.org/2000/svg">
<path d="M0 50C0 22.3858 22.3858 0 50 0C77.6142 0 100 22.3858 100 50C100 77.6142 77.6142 100 50 100C22.3858 100 0 77.6142 0 50Z" fill="#070621"/>
<path d="M79.163 28.3868C80.762 23.5897 79.04 16.7014 77.3179 13.5033C76.5799 12.2732 76.2108 12.0272 75.8418 11.9042C74.8578 11.6582 71.6597 13.7493 68.5846 16.2094C66.7395 10.0592 62.0653 6 56.8991 6C50.3799 6 45.0907 12.1502 44.4756 20.1455C40.7855 16.0864 35.3733 14.2413 33.2822 13.9953C32.7902 13.9953 32.4212 13.9953 32.2982 14.1183C31.9292 14.4873 33.0362 24.5737 33.5282 26.7878C31.1911 29.1249 27.132 35.8901 26.394 40.1953C24.0569 38.8422 21.3508 38.1042 18.5217 38.2272C14.5855 38.3502 10.8954 40.0723 8.06627 42.9014C5.36017 45.8535 3.88411 49.6666 4.00712 53.6028C4.25313 61.5981 10.8954 67.9943 18.8907 67.9943C19.0137 67.9943 19.2597 67.9943 19.3827 67.9943C20.2437 67.9943 21.1048 67.8713 21.8428 67.7483L22.7038 71.3155C20.1207 71.8075 18.3987 73.0375 18.1526 75.3746C18.0296 79.1878 18.6447 82.5089 20.8588 84.969C23.0728 87.3061 26.271 88.6591 29.9611 88.7821C29.3461 89.8892 27.255 93.4563 23.1958 98.2535C22.5808 98.9915 23.4419 99.8525 24.1799 99.1145C26.64 96.2854 40.2935 80.7868 38.0794 65.1652L45.2137 67.8713L48.2888 73.7756C48.2888 90.6272 41.7695 97.2694 41.6465 97.3925C41.0315 98.0075 41.5235 98.9915 42.5076 98.2535C42.8766 98.0075 49.3958 91.2422 49.5188 73.7756L52.4709 67.9943L91.4634 58.154C97.4906 76.6047 88.8803 98.1305 88.8803 98.3765C88.5113 99.4835 89.6183 99.9755 89.9874 98.8685C92.9395 89.3971 104.01 62.5821 79.163 28.3868ZM57.0221 7.10704C61.8193 7.10704 66.1245 11.0432 67.7235 16.9474C65.8785 18.4235 64.2794 20.0225 63.4184 21.0066C60.0972 19.7765 51.8559 18.6695 45.7057 20.5145C46.1977 13.0113 50.9949 7.10704 57.0221 7.10704ZM45.0907 21.9906C50.5029 19.8995 58.6212 20.7606 62.3113 21.9906C60.0972 23.5897 53.947 27.6488 47.7968 27.2798C44.8447 27.1568 42.9996 26.4188 42.7536 25.4347C42.5076 24.5737 43.4916 23.0976 45.0907 21.9906ZM32.2982 36.8742C33.4052 32.077 36.7263 29.2479 40.6625 29.7399C42.0155 29.9859 43.3686 30.7239 44.2296 32.077C45.4597 33.9221 45.9517 36.5051 45.3367 38.9652C44.5987 42.2864 42.2616 44.2544 39.3094 44.2544C38.6944 44.2544 38.2024 44.2544 37.4644 44.0084C32.1752 42.7784 31.6832 39.4573 32.2982 36.8742ZM27.255 42.1634C27.624 42.4094 27.87 42.7784 28.239 43.0244C30.9451 45.4845 32.4212 48.9286 32.5442 52.6188C32.5442 53.4798 32.5442 54.3408 32.4212 55.2019C28.7311 51.1427 27.009 46.7145 27.255 42.1634ZM19.3827 66.7643C11.8794 67.0103 5.48317 61.1061 5.23716 53.4798C5.11416 49.7896 6.46721 46.3455 8.9273 43.6394C11.3874 40.9333 14.8315 39.4573 18.5217 39.3343H19.0137C21.5968 39.3343 24.0569 40.0723 26.271 41.4253C25.7789 46.8375 27.747 52.0037 32.2982 56.6779C31.6832 58.769 30.5761 60.7371 29.1001 62.4591C26.394 65.0422 23.0728 66.6413 19.3827 66.7643ZM30.9451 87.3061C27.255 87.3061 24.1799 86.076 22.0888 83.8619C20.6127 82.1399 19.7517 80.0488 19.6287 77.5887C20.7357 78.5727 23.0728 79.4338 25.0409 79.1878L26.0249 82.8779C26.271 83.8619 27.378 83.4929 27.255 82.6319L26.394 79.1878C26.64 79.1878 26.763 79.0648 27.009 79.0648C30.2071 81.4018 34.5123 78.8187 35.4963 77.8347C33.8972 81.5248 32.1752 85.092 30.9451 87.3061ZM36.4803 72.6685C35.7423 76.4817 31.4372 79.9258 28.116 78.3267C29.7151 77.5887 30.6991 76.2356 30.6991 74.8826C30.6991 73.7756 28.731 70.3314 23.9339 70.9464L22.9498 67.2563C25.5329 66.5183 27.747 65.1652 29.7151 63.0741C31.1911 61.4751 32.2982 59.507 33.0362 57.4159L33.1592 57.5389C37.0954 61.7211 37.5874 67.2563 36.4803 72.6685ZM53.701 59.015C50.5029 59.015 47.6738 57.1699 46.4437 55.4479C45.5827 57.2929 43.2456 58.769 40.6625 58.769C38.3254 58.769 35.4963 57.6619 34.3893 54.0948C34.2663 53.3568 35.3733 53.2338 35.6193 53.7258C36.8494 56.9239 39.1864 57.785 41.4005 57.5389C43.4916 57.1699 45.7057 54.2178 45.7057 53.2338C44.7217 53.1108 43.7376 51.0197 43.9836 50.1587C44.1066 49.6666 44.7217 49.0516 46.3207 49.0516C47.9198 49.0516 48.4118 49.7896 48.5348 50.1587C48.7808 50.7737 48.2888 52.9878 46.9357 53.2338C46.9357 54.2178 49.7648 57.4159 52.963 57.785C54.562 57.908 57.0221 57.5389 58.1292 53.7258C58.3752 52.8648 59.4822 53.2338 59.3592 53.9718C58.7442 57.1699 56.6531 59.015 53.701 59.015ZM67.2315 43.0244C66.3705 43.7624 65.1404 44.1314 63.4184 44.1314C62.6803 44.1314 61.8193 44.0084 60.8353 44.0084C57.2681 43.3934 53.209 42.7784 53.209 38.1042C53.209 33.799 56.7761 30.2319 61.0813 30.2319C65.3864 30.2319 68.9536 33.799 68.9536 38.1042C68.9536 40.4413 68.3385 42.0404 67.2315 43.0244Z" fill="white"/>
</svg>
